<svg xmlns="http://www.w3.org/2000/svg"
     viewBox="0 0 108 108" width="1024" height="1024">

  <!-- Transparent background — foreground layer only -->

  <!-- Area fill under chart line -->
  <path d="M 22,86 L 22,72 L 32,72 L 40,58 L 48,68 L 56,38 L 64,58 L 72,44 L 86,24 L 86,86 Z"
        fill="#00C853" fill-opacity="0.08"/>

  <!-- Outer glow -->
  <path d="M 22,72 L 32,72 L 40,58 L 48,68 L 56,38 L 64,58 L 72,44 L 86,24"
        fill="none" stroke="#00C853" stroke-width="10" stroke-opacity="0.10"
        stroke-linecap="round" stroke-linejoin="round"/>

  <!-- Mid glow -->
  <path d="M 22,72 L 32,72 L 40,58 L 48,68 L 56,38 L 64,58 L 72,44 L 86,24"
        fill="none" stroke="#00C853" stroke-width="5" stroke-opacity="0.28"
        stroke-linecap="round" stroke-linejoin="round"/>

  <!-- Main chart line -->
  <path d="M 22,72 L 32,72 L 40,58 L 48,68 L 56,38 L 64,58 L 72,44 L 86,24"
        fill="none" stroke="#00C853" stroke-width="2.5"
        stroke-linecap="round" stroke-linejoin="round"/>

  <!-- Terminal dot glow -->
  <circle cx="86" cy="24" r="7" fill="#00C853" fill-opacity="0.20"/>

  <!-- Terminal dot -->
  <circle cx="86" cy="24" r="3.5" fill="#00C853"/>

</svg>
